<svg width="704" height="683" viewBox="0 0 704 683" fill="none" xmlns="http://www.w3.org/2000/svg">
<path fill-rule="evenodd" clip-rule="evenodd" d="M352.274 682.591L175.113 555.758L65.6009 310.285L73.0058 281.717L61.8956 265.317L60.3109 241.509L0 8.73311L109.512 100.257L115.329 123.535L121.149 107.662L352.274 0L582.291 107.508L588.111 123.381L593.931 100.103L703.443 8.57919L643.132 241.355L641.544 265.163L630.434 281.563L637.842 310.131L528.33 555.604L352.274 682.591ZM352.337 8.46232L127.565 113.776L119.607 144.854L108.999 137.683L102.634 104.746L14.5818 30.9051L46.9376 157.869L64.7088 173.009L65.2389 182.569L51.1816 172.211L69.748 249.239L86.9862 263.054L84.8657 272.613L68.6877 260.927L82.7422 282.176L75.3174 308.737L182.198 550.18L352.274 670.967L521.242 550.026L628.126 308.583L620.701 282.022L634.755 260.773L618.577 272.459L616.457 262.9L633.695 249.087L652.261 172.057L638.204 182.418L638.734 172.855L656.502 157.715L688.861 30.7512L600.809 104.592L594.444 137.529L583.833 144.701L575.878 113.624L352.337 8.46232ZM295.446 344.063L240.28 390.279L211.903 368.501L213.229 357.61L72.4785 246.271L56.6056 180.671L211.615 303.407L241.241 278.542C251.55 305.699 268.871 328.25 295.446 344.063ZM352.274 52.6951L545.908 142.044L551.477 160.636L557.312 155.854L550.947 137.529L352.274 47.2882L152.496 137.683L146.129 156.007L151.963 160.79L157.532 142.198L352.274 52.6951ZM464.753 271.926L491.009 293.708L491.805 285.739L654.239 155.124L683.075 41.1174L604.511 106.45L597.634 138.191L469.08 232.359C469.513 245.362 467.848 258.573 464.753 271.926ZM407.996 343.909L463.163 390.125L491.54 368.344L490.211 357.456L630.964 246.115L646.834 180.514L491.827 303.253L462.202 278.388C451.89 305.542 434.572 328.096 407.996 343.909ZM352.158 301.318L240.713 394.401L83.5887 276.424L101.577 301.289L243.358 411.858L352.274 315.563L460.084 411.705L601.866 301.136L619.854 276.27L462.729 394.247L352.158 301.318ZM430.898 547.199L352.277 437.576L272.551 547.353L113.217 318.217L243.889 419.794L352.277 323.678L459.557 419.64L590.229 318.066L430.898 547.199ZM352.28 626.88L204.213 521.897L141.257 376.94L123.8 355.777L201.038 527.715L352.28 634.145L502.413 527.564L579.652 355.623L562.194 376.786L499.238 521.743L352.28 626.88ZM351.109 138.185C408.364 138.185 454.8 184.498 454.8 241.611C454.8 282.435 431.066 317.732 396.621 334.552L403.271 340.417C438.933 321.754 463.265 284.564 463.265 241.725C463.265 180.166 413.038 130.247 351.109 130.247C289.176 130.247 238.952 180.166 238.952 241.725C238.952 284.952 263.723 322.43 299.916 340.925L306.585 335.031C271.604 318.411 247.417 282.826 247.417 241.611C247.417 184.498 293.853 138.185 351.109 138.185ZM238.696 272.077L212.439 293.859L211.644 285.89L49.2092 155.275L20.3734 41.2685L98.9344 106.599L105.812 138.342L234.369 232.511C233.692 244.991 235.135 258.18 238.696 272.077ZM351.374 144.532C404.687 144.532 447.922 188.007 447.922 241.611C447.922 280.85 424.747 314.657 391.417 329.96L385.457 324.701C418.363 311.348 441.572 279.1 441.572 241.44C441.572 191.835 401.298 151.601 351.636 151.601C301.973 151.601 261.7 191.835 261.7 241.44C261.7 279.217 285.06 311.55 318.129 324.83L311.986 330.259C278.302 315.102 254.822 281.11 254.822 241.611C254.822 188.007 298.057 144.532 351.374 144.532ZM301.908 309.065L320.423 251.399L270.695 214.366H333.121L351.109 156.173L369.624 213.309H431.522L381.791 250.342L400.837 309.592L351.109 273.089L301.908 309.065ZM351.636 219.129C364.49 219.129 374.914 229.196 374.914 241.611C374.914 254.027 364.49 264.097 351.636 264.097C338.784 264.097 328.358 254.027 328.358 241.611C328.358 229.196 338.784 219.129 351.636 219.129Z" fill="white"/>
</svg>
